<mxfile host="65bd71144e">
    <diagram id="Zk6yQUMpaAom-31z0v0x" name="学习率">
        <mxGraphModel dx="898" dy="478" grid="1" gridSize="10" guides="1" tooltips="1" connect="1" arrows="1" fold="1" page="1" pageScale="1" pageWidth="827" pageHeight="1169" math="1" shadow="0">
            <root>
                <mxCell id="0"/>
                <mxCell id="1" parent="0"/>
                <mxCell id="S3y5FlrcWzzD0M4coy2o-1" value="" style="swimlane;whiteSpace=wrap;html=1;fontColor=#808080;dashed=1;strokeColor=#99FFFF;strokeWidth=2;fillColor=none;" vertex="1" parent="1">
                    <mxGeometry x="80" y="160" width="640" height="440" as="geometry"/>
                </mxCell>
                <mxCell id="S3y5FlrcWzzD0M4coy2o-9" value="" style="group" vertex="1" connectable="0" parent="S3y5FlrcWzzD0M4coy2o-1">
                    <mxGeometry x="40" y="40" width="240" height="400" as="geometry"/>
                </mxCell>
                <mxCell id="S3y5FlrcWzzD0M4coy2o-2" value="" style="endArrow=classic;html=1;fontColor=#808080;strokeColor=#808080;strokeWidth=2;" edge="1" parent="S3y5FlrcWzzD0M4coy2o-9">
                    <mxGeometry width="50" height="50" relative="1" as="geometry">
                        <mxPoint y="200" as="sourcePoint"/>
                        <mxPoint x="240" y="200" as="targetPoint"/>
                    </mxGeometry>
                </mxCell>
                <mxCell id="S3y5FlrcWzzD0M4coy2o-3" value="" style="endArrow=none;html=1;strokeColor=#808080;strokeWidth=2;fontColor=#808080;elbow=vertical;curved=1;" edge="1" parent="S3y5FlrcWzzD0M4coy2o-9">
                    <mxGeometry width="50" height="50" relative="1" as="geometry">
                        <mxPoint x="40" as="sourcePoint"/>
                        <mxPoint x="200" as="targetPoint"/>
                        <Array as="points">
                            <mxPoint x="120" y="400"/>
                        </Array>
                    </mxGeometry>
                </mxCell>
                <mxCell id="S3y5FlrcWzzD0M4coy2o-4" value="" style="endArrow=classic;html=1;strokeColor=#808080;strokeWidth=2;fontColor=#808080;" edge="1" parent="S3y5FlrcWzzD0M4coy2o-9">
                    <mxGeometry width="50" height="50" relative="1" as="geometry">
                        <mxPoint x="119.66" y="240" as="sourcePoint"/>
                        <mxPoint x="120" as="targetPoint"/>
                    </mxGeometry>
                </mxCell>
                <mxCell id="S3y5FlrcWzzD0M4coy2o-15" value="" style="endArrow=classic;html=1;rounded=0;strokeColor=#FF3333;strokeWidth=2;elbow=vertical;" edge="1" parent="S3y5FlrcWzzD0M4coy2o-9">
                    <mxGeometry width="50" height="50" relative="1" as="geometry">
                        <mxPoint x="80" y="150" as="sourcePoint"/>
                        <mxPoint x="170" y="130" as="targetPoint"/>
                    </mxGeometry>
                </mxCell>
                <mxCell id="S3y5FlrcWzzD0M4coy2o-16" value="" style="endArrow=classic;html=1;rounded=0;strokeColor=#FF3333;strokeWidth=2;elbow=vertical;" edge="1" parent="S3y5FlrcWzzD0M4coy2o-9">
                    <mxGeometry width="50" height="50" relative="1" as="geometry">
                        <mxPoint x="170" y="130" as="sourcePoint"/>
                        <mxPoint x="70" y="120" as="targetPoint"/>
                    </mxGeometry>
                </mxCell>
                <mxCell id="S3y5FlrcWzzD0M4coy2o-17" value="" style="endArrow=classic;html=1;rounded=0;strokeColor=#FF3333;strokeWidth=2;elbow=vertical;" edge="1" parent="S3y5FlrcWzzD0M4coy2o-9">
                    <mxGeometry width="50" height="50" relative="1" as="geometry">
                        <mxPoint x="70" y="120" as="sourcePoint"/>
                        <mxPoint x="180" y="80" as="targetPoint"/>
                    </mxGeometry>
                </mxCell>
                <mxCell id="S3y5FlrcWzzD0M4coy2o-18" value="" style="endArrow=classic;html=1;rounded=0;strokeColor=#FF3333;strokeWidth=2;elbow=vertical;" edge="1" parent="S3y5FlrcWzzD0M4coy2o-9">
                    <mxGeometry width="50" height="50" relative="1" as="geometry">
                        <mxPoint x="180" y="80" as="sourcePoint"/>
                        <mxPoint x="50" y="40" as="targetPoint"/>
                    </mxGeometry>
                </mxCell>
                <mxCell id="S3y5FlrcWzzD0M4coy2o-22" value="设置了较高学习率的情况" style="text;strokeColor=none;fillColor=none;align=left;verticalAlign=middle;spacingLeft=4;spacingRight=4;overflow=hidden;points=[[0,0.5],[1,0.5]];portConstraint=eastwest;rotatable=0;whiteSpace=wrap;html=1;strokeWidth=1;fontSize=15;fontColor=#808080;fontStyle=1" vertex="1" parent="S3y5FlrcWzzD0M4coy2o-9">
                    <mxGeometry x="70" y="270" width="100" height="80" as="geometry"/>
                </mxCell>
                <mxCell id="S3y5FlrcWzzD0M4coy2o-11" value="" style="group" vertex="1" connectable="0" parent="1">
                    <mxGeometry x="440" y="200" width="240" height="400" as="geometry"/>
                </mxCell>
                <mxCell id="S3y5FlrcWzzD0M4coy2o-12" value="" style="endArrow=classic;html=1;fontColor=#808080;strokeColor=#808080;strokeWidth=2;" edge="1" parent="S3y5FlrcWzzD0M4coy2o-11">
                    <mxGeometry width="50" height="50" relative="1" as="geometry">
                        <mxPoint y="200" as="sourcePoint"/>
                        <mxPoint x="240" y="200" as="targetPoint"/>
                    </mxGeometry>
                </mxCell>
                <mxCell id="S3y5FlrcWzzD0M4coy2o-13" value="" style="endArrow=none;html=1;strokeColor=#808080;strokeWidth=2;fontColor=#808080;elbow=vertical;curved=1;" edge="1" parent="S3y5FlrcWzzD0M4coy2o-11">
                    <mxGeometry width="50" height="50" relative="1" as="geometry">
                        <mxPoint x="40" as="sourcePoint"/>
                        <mxPoint x="200" as="targetPoint"/>
                        <Array as="points">
                            <mxPoint x="120" y="400"/>
                        </Array>
                    </mxGeometry>
                </mxCell>
                <mxCell id="S3y5FlrcWzzD0M4coy2o-14" value="" style="endArrow=classic;html=1;strokeColor=#808080;strokeWidth=2;fontColor=#808080;" edge="1" parent="S3y5FlrcWzzD0M4coy2o-11">
                    <mxGeometry width="50" height="50" relative="1" as="geometry">
                        <mxPoint x="119.66" y="240" as="sourcePoint"/>
                        <mxPoint x="120" as="targetPoint"/>
                    </mxGeometry>
                </mxCell>
                <mxCell id="S3y5FlrcWzzD0M4coy2o-19" value="" style="endArrow=classic;html=1;rounded=0;strokeColor=#FF3333;strokeWidth=2;elbow=vertical;" edge="1" parent="S3y5FlrcWzzD0M4coy2o-11">
                    <mxGeometry width="50" height="50" relative="1" as="geometry">
                        <mxPoint x="70" y="120" as="sourcePoint"/>
                        <mxPoint x="80" y="150" as="targetPoint"/>
                    </mxGeometry>
                </mxCell>
                <mxCell id="S3y5FlrcWzzD0M4coy2o-20" value="" style="endArrow=classic;html=1;rounded=0;strokeColor=#FF3333;strokeWidth=2;elbow=vertical;" edge="1" parent="S3y5FlrcWzzD0M4coy2o-11">
                    <mxGeometry width="50" height="50" relative="1" as="geometry">
                        <mxPoint x="80" y="150" as="sourcePoint"/>
                        <mxPoint x="90" y="170" as="targetPoint"/>
                    </mxGeometry>
                </mxCell>
                <mxCell id="S3y5FlrcWzzD0M4coy2o-21" value="" style="endArrow=classic;html=1;rounded=0;strokeColor=#FF3333;strokeWidth=2;elbow=vertical;" edge="1" parent="S3y5FlrcWzzD0M4coy2o-11">
                    <mxGeometry width="50" height="50" relative="1" as="geometry">
                        <mxPoint x="90" y="170" as="sourcePoint"/>
                        <mxPoint x="100" y="190" as="targetPoint"/>
                    </mxGeometry>
                </mxCell>
                <mxCell id="S3y5FlrcWzzD0M4coy2o-23" value="设置了合适学习率的情况" style="text;strokeColor=none;fillColor=none;align=left;verticalAlign=middle;spacingLeft=4;spacingRight=4;overflow=hidden;points=[[0,0.5],[1,0.5]];portConstraint=eastwest;rotatable=0;whiteSpace=wrap;html=1;strokeWidth=1;fontSize=15;fontColor=#808080;fontStyle=1" vertex="1" parent="S3y5FlrcWzzD0M4coy2o-11">
                    <mxGeometry x="70" y="270" width="100" height="80" as="geometry"/>
                </mxCell>
            </root>
        </mxGraphModel>
    </diagram>
    <diagram id="idB0SZCAzWGbATGg7l9t" name="y=x*x">
        <mxGraphModel dx="743" dy="396" grid="1" gridSize="10" guides="1" tooltips="1" connect="1" arrows="1" fold="1" page="1" pageScale="1" pageWidth="827" pageHeight="1169" math="1" shadow="0">
            <root>
                <mxCell id="0"/>
                <mxCell id="1" parent="0"/>
                <mxCell id="2VwTlzxWkHOZ0hE8vHZl-1" value="" style="swimlane;whiteSpace=wrap;html=1;fontColor=#808080;dashed=1;strokeColor=#99FFFF;strokeWidth=2;fillColor=none;" parent="1" vertex="1">
                    <mxGeometry x="80" y="160" width="320" height="220" as="geometry"/>
                </mxCell>
                <mxCell id="2VwTlzxWkHOZ0hE8vHZl-2" value="" style="endArrow=classic;html=1;fontColor=#808080;strokeColor=#808080;strokeWidth=2;" parent="2VwTlzxWkHOZ0hE8vHZl-1" edge="1">
                    <mxGeometry width="50" height="50" relative="1" as="geometry">
                        <mxPoint x="40" y="160" as="sourcePoint"/>
                        <mxPoint x="280" y="160" as="targetPoint"/>
                    </mxGeometry>
                </mxCell>
                <mxCell id="2VwTlzxWkHOZ0hE8vHZl-4" value="" style="endArrow=none;html=1;strokeColor=#808080;strokeWidth=2;fontColor=#808080;elbow=vertical;curved=1;" parent="2VwTlzxWkHOZ0hE8vHZl-1" edge="1">
                    <mxGeometry width="50" height="50" relative="1" as="geometry">
                        <mxPoint x="80" y="60" as="sourcePoint"/>
                        <mxPoint x="240" y="60" as="targetPoint"/>
                        <Array as="points">
                            <mxPoint x="160" y="260"/>
                        </Array>
                    </mxGeometry>
                </mxCell>
                <mxCell id="2VwTlzxWkHOZ0hE8vHZl-3" value="" style="endArrow=classic;html=1;strokeColor=#808080;strokeWidth=2;fontColor=#808080;" parent="2VwTlzxWkHOZ0hE8vHZl-1" edge="1">
                    <mxGeometry width="50" height="50" relative="1" as="geometry">
                        <mxPoint x="159.5" y="200" as="sourcePoint"/>
                        <mxPoint x="159.5" y="40" as="targetPoint"/>
                    </mxGeometry>
                </mxCell>
                <mxCell id="5" value="" style="endArrow=none;html=1;rounded=0;strokeColor=#FF3333;elbow=vertical;endFill=0;strokeWidth=2;" edge="1" parent="2VwTlzxWkHOZ0hE8vHZl-1">
                    <mxGeometry width="50" height="50" relative="1" as="geometry">
                        <mxPoint x="250" y="40" as="sourcePoint"/>
                        <mxPoint x="180" y="190" as="targetPoint"/>
                    </mxGeometry>
                </mxCell>
                <mxCell id="3" value="" style="endArrow=none;html=1;fillColor=#008a00;strokeColor=#007FFF;edgeStyle=elbowEdgeStyle;elbow=vertical;rounded=0;strokeWidth=2;" edge="1" parent="2VwTlzxWkHOZ0hE8vHZl-1">
                    <mxGeometry width="50" height="50" relative="1" as="geometry">
                        <mxPoint x="230" y="160" as="sourcePoint"/>
                        <mxPoint x="160" y="80" as="targetPoint"/>
                        <Array as="points">
                            <mxPoint x="200" y="80"/>
                        </Array>
                    </mxGeometry>
                </mxCell>
            </root>
        </mxGraphModel>
    </diagram>
    <diagram id="yr7uuZneJjBzKifqS-zb" name="relu">
        <mxGraphModel dx="1077" dy="574" grid="1" gridSize="10" guides="1" tooltips="1" connect="1" arrows="1" fold="1" page="1" pageScale="1" pageWidth="827" pageHeight="1169" math="0" shadow="0">
            <root>
                <mxCell id="0"/>
                <mxCell id="1" parent="0"/>
                <mxCell id="jQyrwwMAxcOkFicoT2TN-4" value="Relu" style="swimlane;whiteSpace=wrap;html=1;fillColor=none;strokeColor=#99FFFF;strokeWidth=2;dashed=1;fontColor=#808080;" parent="1" vertex="1">
                    <mxGeometry x="150" y="120" width="260" height="220" as="geometry"/>
                </mxCell>
                <mxCell id="jQyrwwMAxcOkFicoT2TN-1" value="" style="endArrow=classic;html=1;strokeColor=#808080;strokeWidth=3;" parent="jQyrwwMAxcOkFicoT2TN-4" edge="1">
                    <mxGeometry width="50" height="50" relative="1" as="geometry">
                        <mxPoint x="30" y="120" as="sourcePoint"/>
                        <mxPoint x="230" y="120" as="targetPoint"/>
                    </mxGeometry>
                </mxCell>
                <mxCell id="jQyrwwMAxcOkFicoT2TN-3" value="" style="endArrow=classic;html=1;strokeColor=#808080;strokeWidth=3;" parent="jQyrwwMAxcOkFicoT2TN-4" edge="1">
                    <mxGeometry width="50" height="50" relative="1" as="geometry">
                        <mxPoint x="130" y="200" as="sourcePoint"/>
                        <mxPoint x="130" y="40" as="targetPoint"/>
                    </mxGeometry>
                </mxCell>
                <mxCell id="jQyrwwMAxcOkFicoT2TN-5" value="" style="endArrow=none;html=1;strokeColor=#001DBC;strokeWidth=3;fillColor=#0050ef;jumpSize=6;" parent="jQyrwwMAxcOkFicoT2TN-4" edge="1">
                    <mxGeometry width="50" height="50" relative="1" as="geometry">
                        <mxPoint x="50" y="120" as="sourcePoint"/>
                        <mxPoint x="210" y="40" as="targetPoint"/>
                        <Array as="points">
                            <mxPoint x="130" y="120"/>
                        </Array>
                    </mxGeometry>
                </mxCell>
                <mxCell id="jQyrwwMAxcOkFicoT2TN-7" value="x&amp;nbsp; &amp;nbsp; if x &amp;gt;0&lt;br style=&quot;font-size: 12px;&quot;&gt;0&amp;nbsp; &amp;nbsp; if x ≤0" style="text;html=1;strokeColor=none;fillColor=none;align=center;verticalAlign=middle;whiteSpace=wrap;rounded=0;dashed=1;strokeWidth=2;fontColor=#808080;fontStyle=0;fontSize=12;" parent="jQyrwwMAxcOkFicoT2TN-4" vertex="1">
                    <mxGeometry x="193" y="150" width="60" height="30" as="geometry"/>
                </mxCell>
                <mxCell id="jQyrwwMAxcOkFicoT2TN-8" value="Relu(x) =" style="text;strokeColor=none;fillColor=none;align=left;verticalAlign=middle;spacingLeft=4;spacingRight=4;overflow=hidden;points=[[0,0.5],[1,0.5]];portConstraint=eastwest;rotatable=0;whiteSpace=wrap;html=1;dashed=1;strokeWidth=2;fontColor=#808080;fontStyle=0;fontSize=12;" parent="jQyrwwMAxcOkFicoT2TN-4" vertex="1">
                    <mxGeometry x="133" y="150" width="60" height="30" as="geometry"/>
                </mxCell>
            </root>
        </mxGraphModel>
    </diagram>
    <diagram id="VnzvCSK2w8AMzN_1SQZi" name="突触">
        <mxGraphModel dx="1077" dy="574" grid="1" gridSize="10" guides="1" tooltips="1" connect="1" arrows="1" fold="1" page="1" pageScale="1" pageWidth="827" pageHeight="1169" math="0" shadow="0">
            <root>
                <mxCell id="0"/>
                <mxCell id="1" parent="0"/>
                <mxCell id="dWwJxf6PCwlsj2Vy-38w-5" value="突触结构" style="swimlane;whiteSpace=wrap;html=1;labelBackgroundColor=none;strokeColor=#99FFFF;strokeWidth=2;fontSize=18;fontColor=#808080;fillColor=none;dashed=1;" parent="1" vertex="1">
                    <mxGeometry x="160" y="140" width="330" height="200" as="geometry">
                        <mxRectangle x="60" y="120" width="110" height="40" as="alternateBounds"/>
                    </mxGeometry>
                </mxCell>
                <mxCell id="dWwJxf6PCwlsj2Vy-38w-1" value="前神经元" style="ellipse;whiteSpace=wrap;html=1;aspect=fixed;labelBackgroundColor=none;strokeColor=#999999;strokeWidth=2;fontSize=18;fontColor=#808080;fillColor=none;" parent="dWwJxf6PCwlsj2Vy-38w-5" vertex="1">
                    <mxGeometry x="10" y="70" width="80" height="80" as="geometry"/>
                </mxCell>
                <mxCell id="dWwJxf6PCwlsj2Vy-38w-2" value="后神经元" style="ellipse;whiteSpace=wrap;html=1;aspect=fixed;labelBackgroundColor=none;strokeColor=#999999;strokeWidth=2;fontSize=18;fontColor=#808080;fillColor=none;" parent="dWwJxf6PCwlsj2Vy-38w-5" vertex="1">
                    <mxGeometry x="240" y="70" width="80" height="80" as="geometry"/>
                </mxCell>
                <mxCell id="dWwJxf6PCwlsj2Vy-38w-3" style="edgeStyle=none;rounded=1;html=1;entryX=0;entryY=0.5;entryDx=0;entryDy=0;labelBackgroundColor=none;strokeColor=#808080;strokeWidth=3;fontSize=18;fontColor=#808080;endArrow=none;endFill=0;endSize=0;" parent="dWwJxf6PCwlsj2Vy-38w-5" source="dWwJxf6PCwlsj2Vy-38w-1" target="dWwJxf6PCwlsj2Vy-38w-2" edge="1">
                    <mxGeometry relative="1" as="geometry"/>
                </mxCell>
                <mxCell id="dWwJxf6PCwlsj2Vy-38w-4" value="权重" style="edgeLabel;html=1;align=center;verticalAlign=middle;resizable=0;points=[];fontSize=18;fontColor=#808080;labelBackgroundColor=none;" parent="dWwJxf6PCwlsj2Vy-38w-3" vertex="1" connectable="0">
                    <mxGeometry x="-0.1618" y="-2" relative="1" as="geometry">
                        <mxPoint x="17" y="-22" as="offset"/>
                    </mxGeometry>
                </mxCell>
            </root>
        </mxGraphModel>
    </diagram>
    <diagram id="ReRQX-fV1ZSwccExky8u" name="神经元">
        <mxGraphModel dx="898" dy="478" grid="1" gridSize="10" guides="1" tooltips="1" connect="1" arrows="1" fold="1" page="1" pageScale="1" pageWidth="827" pageHeight="1169" math="0" shadow="0">
            <root>
                <mxCell id="0"/>
                <mxCell id="1" parent="0"/>
                <mxCell id="JxyiwV4gHobnJteTHhh9-1" value="神经元" style="swimlane;whiteSpace=wrap;html=1;dashed=1;labelBackgroundColor=none;strokeColor=#99FFFF;strokeWidth=2;fontSize=18;fontColor=#808080;fillColor=none;" vertex="1" parent="1">
                    <mxGeometry x="149" y="130" width="530" height="200" as="geometry"/>
                </mxCell>
                <mxCell id="QyrgYZwFYmJlR9dGvTJ4-6" value="输入1" style="rounded=0;whiteSpace=wrap;html=1;strokeColor=#808080;strokeWidth=1;fontColor=#999999;fillColor=none;dashed=1;" vertex="1" parent="JxyiwV4gHobnJteTHhh9-1">
                    <mxGeometry x="20" y="40" width="40" height="30" as="geometry"/>
                </mxCell>
                <mxCell id="QyrgYZwFYmJlR9dGvTJ4-7" value="输入2" style="rounded=0;whiteSpace=wrap;html=1;strokeColor=#808080;strokeWidth=1;fontColor=#999999;fillColor=none;dashed=1;" vertex="1" parent="JxyiwV4gHobnJteTHhh9-1">
                    <mxGeometry x="20" y="95" width="40" height="30" as="geometry"/>
                </mxCell>
                <mxCell id="QyrgYZwFYmJlR9dGvTJ4-8" value="输入3" style="rounded=0;whiteSpace=wrap;html=1;strokeColor=#808080;strokeWidth=1;fontColor=#999999;fillColor=none;dashed=1;" vertex="1" parent="JxyiwV4gHobnJteTHhh9-1">
                    <mxGeometry x="20" y="150" width="40" height="30" as="geometry"/>
                </mxCell>
                <mxCell id="QyrgYZwFYmJlR9dGvTJ4-1" value="求和" style="ellipse;whiteSpace=wrap;html=1;aspect=fixed;strokeColor=#b46504;strokeWidth=1;fillColor=#fad7ac;fontColor=#000000;fontStyle=1;fontSize=18;" vertex="1" parent="JxyiwV4gHobnJteTHhh9-1">
                    <mxGeometry x="180" y="70" width="80" height="80" as="geometry"/>
                </mxCell>
                <mxCell id="QyrgYZwFYmJlR9dGvTJ4-13" value="激活函数" style="rounded=0;whiteSpace=wrap;html=1;strokeColor=#808080;strokeWidth=1;fontColor=#999999;fillColor=none;dashed=1;" vertex="1" parent="JxyiwV4gHobnJteTHhh9-1">
                    <mxGeometry x="290" y="95" width="76" height="30" as="geometry"/>
                </mxCell>
                <mxCell id="QyrgYZwFYmJlR9dGvTJ4-15" value="输出值" style="rounded=0;whiteSpace=wrap;html=1;strokeColor=#808080;strokeWidth=1;fontColor=#999999;fillColor=none;dashed=1;" vertex="1" parent="JxyiwV4gHobnJteTHhh9-1">
                    <mxGeometry x="460" y="95" width="50" height="30" as="geometry"/>
                </mxCell>
                <mxCell id="QyrgYZwFYmJlR9dGvTJ4-2" style="edgeStyle=none;rounded=1;html=1;strokeColor=#808080;strokeWidth=3;fontColor=#999999;endArrow=none;endFill=0;endSize=0;exitX=0;exitY=0.5;exitDx=0;exitDy=0;labelBackgroundColor=none;" edge="1" parent="JxyiwV4gHobnJteTHhh9-1" source="QyrgYZwFYmJlR9dGvTJ4-1" target="QyrgYZwFYmJlR9dGvTJ4-6">
                    <mxGeometry relative="1" as="geometry">
                        <mxPoint x="80" y="50" as="targetPoint"/>
                    </mxGeometry>
                </mxCell>
                <mxCell id="QyrgYZwFYmJlR9dGvTJ4-9" value="权重1" style="edgeLabel;html=1;align=center;verticalAlign=middle;resizable=0;points=[];fontColor=#999999;labelBackgroundColor=none;" vertex="1" connectable="0" parent="QyrgYZwFYmJlR9dGvTJ4-2">
                    <mxGeometry x="-0.1555" relative="1" as="geometry">
                        <mxPoint x="-19" y="-20" as="offset"/>
                    </mxGeometry>
                </mxCell>
                <mxCell id="QyrgYZwFYmJlR9dGvTJ4-4" style="edgeStyle=none;rounded=1;html=1;exitX=0;exitY=0.5;exitDx=0;exitDy=0;strokeColor=#808080;strokeWidth=3;fontColor=#999999;endArrow=none;endFill=0;endSize=0;labelBackgroundColor=none;" edge="1" parent="JxyiwV4gHobnJteTHhh9-1" source="QyrgYZwFYmJlR9dGvTJ4-1" target="QyrgYZwFYmJlR9dGvTJ4-7">
                    <mxGeometry relative="1" as="geometry">
                        <mxPoint x="80" y="110" as="targetPoint"/>
                    </mxGeometry>
                </mxCell>
                <mxCell id="QyrgYZwFYmJlR9dGvTJ4-10" value="权重2" style="edgeLabel;html=1;align=center;verticalAlign=middle;resizable=0;points=[];fontColor=#999999;labelBackgroundColor=none;" vertex="1" connectable="0" parent="QyrgYZwFYmJlR9dGvTJ4-4">
                    <mxGeometry x="0.1601" y="-1" relative="1" as="geometry">
                        <mxPoint y="-9" as="offset"/>
                    </mxGeometry>
                </mxCell>
                <mxCell id="QyrgYZwFYmJlR9dGvTJ4-5" style="edgeStyle=none;rounded=1;html=1;exitX=0;exitY=0.5;exitDx=0;exitDy=0;strokeColor=#808080;strokeWidth=3;fontColor=#999999;endArrow=none;endFill=0;endSize=0;labelBackgroundColor=none;" edge="1" parent="JxyiwV4gHobnJteTHhh9-1" source="QyrgYZwFYmJlR9dGvTJ4-1" target="QyrgYZwFYmJlR9dGvTJ4-8">
                    <mxGeometry relative="1" as="geometry">
                        <mxPoint x="80" y="170" as="targetPoint"/>
                    </mxGeometry>
                </mxCell>
                <mxCell id="QyrgYZwFYmJlR9dGvTJ4-11" value="权重3" style="edgeLabel;html=1;align=center;verticalAlign=middle;resizable=0;points=[];fontColor=#999999;labelBackgroundColor=none;" vertex="1" connectable="0" parent="QyrgYZwFYmJlR9dGvTJ4-5">
                    <mxGeometry x="0.1568" relative="1" as="geometry">
                        <mxPoint y="-12" as="offset"/>
                    </mxGeometry>
                </mxCell>
                <mxCell id="QyrgYZwFYmJlR9dGvTJ4-12" style="edgeStyle=none;rounded=1;html=1;exitX=1;exitY=0.5;exitDx=0;exitDy=0;strokeColor=#808080;strokeWidth=3;fontColor=#999999;endArrow=none;endFill=0;endSize=0;" edge="1" parent="JxyiwV4gHobnJteTHhh9-1" source="QyrgYZwFYmJlR9dGvTJ4-1" target="QyrgYZwFYmJlR9dGvTJ4-13">
                    <mxGeometry relative="1" as="geometry">
                        <mxPoint x="300" y="110.33333333333337" as="targetPoint"/>
                    </mxGeometry>
                </mxCell>
                <mxCell id="QyrgYZwFYmJlR9dGvTJ4-14" style="edgeStyle=none;rounded=1;html=1;strokeColor=#808080;strokeWidth=3;fontColor=#999999;endArrow=none;endFill=0;endSize=0;labelBackgroundColor=none;" edge="1" parent="JxyiwV4gHobnJteTHhh9-1" source="QyrgYZwFYmJlR9dGvTJ4-13" target="QyrgYZwFYmJlR9dGvTJ4-15">
                    <mxGeometry relative="1" as="geometry">
                        <mxPoint x="400" y="110" as="targetPoint"/>
                    </mxGeometry>
                </mxCell>
                <mxCell id="QyrgYZwFYmJlR9dGvTJ4-16" value="偏置值" style="edgeLabel;html=1;align=center;verticalAlign=middle;resizable=0;points=[];fontColor=#999999;labelBackgroundColor=none;" vertex="1" connectable="0" parent="QyrgYZwFYmJlR9dGvTJ4-14">
                    <mxGeometry x="0.3951" y="1" relative="1" as="geometry">
                        <mxPoint x="-22" y="-9" as="offset"/>
                    </mxGeometry>
                </mxCell>
            </root>
        </mxGraphModel>
    </diagram>
    <diagram id="DrmQWHi-Lp5L_DknBuGU" name="神经网络">
        <mxGraphModel dx="743" dy="396" grid="1" gridSize="10" guides="1" tooltips="1" connect="1" arrows="1" fold="1" page="1" pageScale="1" pageWidth="827" pageHeight="1169" math="0" shadow="0">
            <root>
                <mxCell id="0"/>
                <mxCell id="1" parent="0"/>
                <mxCell id="43" value="bp神经网络" style="swimlane;whiteSpace=wrap;html=1;dashed=1;strokeColor=#99FFFF;fillColor=none;fontColor=#999999;strokeWidth=2;perimeterSpacing=0;" vertex="1" parent="1">
                    <mxGeometry x="50" y="60" width="330" height="270" as="geometry">
                        <mxRectangle x="130" y="140" width="100" height="30" as="alternateBounds"/>
                    </mxGeometry>
                </mxCell>
                <mxCell id="40" value="输入层" style="swimlane;whiteSpace=wrap;html=1;dashed=1;strokeColor=#99FF33;fillColor=none;fontColor=#999999;swimlaneFillColor=none;strokeWidth=2;" vertex="1" parent="43">
                    <mxGeometry x="40" y="40" width="50" height="210" as="geometry">
                        <mxRectangle x="170" y="195" width="80" height="30" as="alternateBounds"/>
                    </mxGeometry>
                </mxCell>
                <mxCell id="3" value="" style="ellipse;whiteSpace=wrap;html=1;aspect=fixed;strokeColor=#2D7600;fillColor=#60a917;fontColor=#ffffff;" vertex="1" parent="40">
                    <mxGeometry y="60" width="50" height="50" as="geometry"/>
                </mxCell>
                <mxCell id="4" value="" style="ellipse;whiteSpace=wrap;html=1;aspect=fixed;fillColor=#60a917;fontColor=#ffffff;strokeColor=#2D7600;" vertex="1" parent="40">
                    <mxGeometry y="120" width="50" height="50" as="geometry"/>
                </mxCell>
                <mxCell id="41" value="隐藏层" style="swimlane;whiteSpace=wrap;html=1;dashed=1;strokeColor=#99FF33;fillColor=none;fontColor=#999999;swimlaneFillColor=none;strokeWidth=2;" vertex="1" parent="43">
                    <mxGeometry x="140" y="40" width="50" height="210" as="geometry"/>
                </mxCell>
                <mxCell id="6" value="" style="ellipse;whiteSpace=wrap;html=1;aspect=fixed;fillColor=#647687;fontColor=#ffffff;strokeColor=#314354;" vertex="1" parent="41">
                    <mxGeometry y="30" width="50" height="50" as="geometry"/>
                </mxCell>
                <mxCell id="7" value="" style="ellipse;whiteSpace=wrap;html=1;aspect=fixed;fillColor=#647687;fontColor=#ffffff;strokeColor=#314354;" vertex="1" parent="41">
                    <mxGeometry y="90" width="50" height="50" as="geometry"/>
                </mxCell>
                <mxCell id="8" value="" style="ellipse;whiteSpace=wrap;html=1;aspect=fixed;fillColor=#647687;fontColor=#ffffff;strokeColor=#314354;" vertex="1" parent="41">
                    <mxGeometry y="150" width="50" height="50" as="geometry"/>
                </mxCell>
                <mxCell id="21" style="edgeStyle=none;html=1;entryX=0;entryY=0.5;entryDx=0;entryDy=0;strokeColor=#808080;rounded=1;endArrow=none;endFill=0;exitX=1;exitY=0.5;exitDx=0;exitDy=0;fontStyle=0;strokeWidth=2;" edge="1" parent="43" source="3" target="6">
                    <mxGeometry relative="1" as="geometry"/>
                </mxCell>
                <mxCell id="27" style="edgeStyle=none;rounded=1;html=1;entryX=0;entryY=0.5;entryDx=0;entryDy=0;strokeColor=#808080;strokeWidth=2;endArrow=none;endFill=0;endSize=0;exitX=1;exitY=0.5;exitDx=0;exitDy=0;fontStyle=0" edge="1" parent="43" source="4" target="6">
                    <mxGeometry relative="1" as="geometry"/>
                </mxCell>
                <mxCell id="25" style="edgeStyle=none;rounded=1;html=1;entryX=0;entryY=0.5;entryDx=0;entryDy=0;strokeColor=#808080;strokeWidth=2;endArrow=none;endFill=0;endSize=0;exitX=1;exitY=0.5;exitDx=0;exitDy=0;fontStyle=0" edge="1" parent="43" source="3" target="7">
                    <mxGeometry relative="1" as="geometry"/>
                </mxCell>
                <mxCell id="29" style="edgeStyle=none;rounded=1;html=1;exitX=1;exitY=0.5;exitDx=0;exitDy=0;entryX=0;entryY=0.5;entryDx=0;entryDy=0;strokeColor=#808080;strokeWidth=2;endArrow=none;endFill=0;endSize=0;fontStyle=0" edge="1" parent="43" source="4" target="7">
                    <mxGeometry relative="1" as="geometry"/>
                </mxCell>
                <mxCell id="26" style="edgeStyle=none;rounded=1;html=1;entryX=0;entryY=0.5;entryDx=0;entryDy=0;strokeColor=#808080;strokeWidth=2;endArrow=none;endFill=0;endSize=0;exitX=1;exitY=0.5;exitDx=0;exitDy=0;fontStyle=0" edge="1" parent="43" source="3" target="8">
                    <mxGeometry relative="1" as="geometry"/>
                </mxCell>
                <mxCell id="30" style="edgeStyle=none;rounded=1;html=1;exitX=1;exitY=0.5;exitDx=0;exitDy=0;entryX=0;entryY=0.5;entryDx=0;entryDy=0;strokeColor=#808080;strokeWidth=2;endArrow=none;endFill=0;endSize=0;fontStyle=0" edge="1" parent="43" source="4" target="8">
                    <mxGeometry relative="1" as="geometry"/>
                </mxCell>
                <mxCell id="42" value="输出层" style="swimlane;whiteSpace=wrap;html=1;dashed=1;strokeColor=#99FF33;fillColor=none;fontColor=#999999;swimlaneFillColor=none;strokeWidth=2;" vertex="1" parent="43">
                    <mxGeometry x="240" y="40" width="50" height="210" as="geometry"/>
                </mxCell>
                <mxCell id="9" value="" style="ellipse;whiteSpace=wrap;html=1;aspect=fixed;fillColor=#d80073;fontColor=#ffffff;strokeColor=#A50040;" vertex="1" parent="42">
                    <mxGeometry y="90" width="50" height="50" as="geometry"/>
                </mxCell>
                <mxCell id="31" style="edgeStyle=none;rounded=1;html=1;exitX=1;exitY=0.5;exitDx=0;exitDy=0;entryX=0;entryY=0.5;entryDx=0;entryDy=0;strokeColor=#808080;strokeWidth=2;endArrow=none;endFill=0;endSize=0;fontStyle=0" edge="1" parent="43" source="6" target="9">
                    <mxGeometry relative="1" as="geometry"/>
                </mxCell>
                <mxCell id="32" style="edgeStyle=none;rounded=1;html=1;exitX=1;exitY=0.5;exitDx=0;exitDy=0;entryX=0;entryY=0.5;entryDx=0;entryDy=0;strokeColor=#808080;strokeWidth=2;endArrow=none;endFill=0;endSize=0;fontStyle=0" edge="1" parent="43" source="7" target="9">
                    <mxGeometry relative="1" as="geometry"/>
                </mxCell>
                <mxCell id="33" style="edgeStyle=none;rounded=1;html=1;exitX=1;exitY=0.5;exitDx=0;exitDy=0;entryX=0;entryY=0.5;entryDx=0;entryDy=0;strokeColor=#808080;strokeWidth=2;endArrow=none;endFill=0;endSize=0;fontStyle=0" edge="1" parent="43" source="8" target="9">
                    <mxGeometry relative="1" as="geometry"/>
                </mxCell>
            </root>
        </mxGraphModel>
    </diagram>
</mxfile>